<?xml version="1.0" encoding="utf-8"?>
<!-- Generator: Adobe Illustrator 17.0.2, SVG Export Plug-In . SVG Version: 6.00 Build 0)  -->
<!DOCTYPE svg PUBLIC "-//W3C//DTD SVG 1.1//EN" "http://www.w3.org/Graphics/SVG/1.1/DTD/svg11.dtd">
<svg version="1.1" xmlns="http://www.w3.org/2000/svg" xmlns:xlink="http://www.w3.org/1999/xlink" x="0px" y="0px" width="256px"
	 height="256px" viewBox="0 0 256 256" enable-background="new 0 0 256 256" xml:space="preserve">
<defs>
    <style><![CDATA[
        .sprite { display: none; }
        .sprite:target { display: inline; }
    ]]></style>
</defs>
<g class="sprite" id="status">
	<g>
		<path fill="#7AB60A" d="M128,32c52.935,0,96,43.065,96,96s-43.065,96-96,96s-96-43.065-96-96S75.065,32,128,32 M128,0
			C57.308,0,0,57.308,0,128c0,70.693,57.308,128,128,128s128-57.307,128-128C256,57.308,198.692,0,128,0L128,0z"/>
		<path fill="#7AB60A" d="M119.999,176c-4.228,0-8.302-1.675-11.312-4.686l-32-32c-6.248-6.248-6.248-16.379,0-22.627
			c6.248-6.248,16.379-6.248,22.627,0l18.955,18.955L155.2,86.4c5.302-7.069,15.33-8.503,22.4-3.2c7.069,5.302,8.502,15.33,3.2,22.4
			l-48,63.999c-2.783,3.71-7.039,6.031-11.666,6.36C120.755,175.987,120.376,176,119.999,176z"/>
	</g>
</g>
<g class="sprite" id="error">
	<path display="inline" fill="#B7351D" d="M128,32c52.935,0,96,43.065,96,96s-43.065,96-96,96c-52.935,0-96-43.065-96-96
		S75.065,32,128,32 M128,0C57.308,0,0,57.308,0,128c0,70.693,57.308,128,128,128s128-57.307,128-128C256,57.308,198.692,0,128,0
		L128,0z"/>
	<path display="inline" fill="#B7351D" d="M173.255,150.626L150.627,128l22.628-22.627c6.249-6.249,6.248-16.379,0-22.628
		c-6.248-6.248-16.379-6.249-22.628,0L128,105.373l-22.627-22.628c-6.248-6.248-16.379-6.249-22.628,0s-6.248,16.379,0,22.628
		L105.373,128l-22.628,22.626c-6.249,6.249-6.248,16.38,0,22.629c6.249,6.248,16.379,6.249,22.628,0L128,150.626l22.627,22.629
		c6.249,6.248,16.379,6.249,22.628,0C179.504,167.006,179.503,156.876,173.255,150.626z"/>
</g>
<g class="sprite" id="warning">
	<g display="inline">
		<path fill="#FF9A00" d="M112,95.999v48c0,8.837,7.164,16,16,16s16-7.163,16-16v-48c0-8.836-7.164-16-16-16S112,87.163,112,95.999z
			"/>
		<circle fill="#FF9A00" cx="128" cy="191.999" r="16"/>
		<path fill="#FF9A00" d="M252.621,209.689l-96-192C151.201,6.847,140.121-0.001,128-0.001S104.799,6.847,99.379,17.69l-96,192
			c-4.961,9.918-4.43,21.699,1.4,31.133c5.83,9.435,16.131,15.177,27.221,15.177h192c11.09,0,21.391-5.742,27.221-15.177
			C257.051,231.389,257.582,219.607,252.621,209.689z M32,223.999l96-192l96,192H32z"/>
	</g>
</g>
</svg>
