<?xml version="1.0" encoding="utf-8"?>
<!-- Generator: Adobe Illustrator 17.0.2, SVG Export Plug-In . SVG Version: 6.00 Build 0)  -->
<!DOCTYPE svg PUBLIC "-//W3C//DTD SVG 1.1//EN" "http://www.w3.org/Graphics/SVG/1.1/DTD/svg11.dtd">
<svg version="1.1" id="Layer_4" xmlns="http://www.w3.org/2000/svg" xmlns:xlink="http://www.w3.org/1999/xlink" x="0px" y="0px"
	 width="101px" height="101px" viewBox="0 -2 101 101" enable-background="new 0 -2 101 101" xml:space="preserve">
<path fill="#B83020" d="M100.079,96.224C100.586,97.201,100.1,98,99,98h-1.792H74.917H72c-1.1,0-2.414-0.799-2.921-1.776
	l-0.505-0.974l0,0L56.921,72.775C56.414,71.799,55.1,71,54,71H32c-1.1,0-2,0.9-2,2v21.958V96c0,1.1-0.9,2-2,2h-1.208H3.5H2
	c-1.1,0-2-0.9-2-2v-0.667V2.75V2c0-1.1,0.9-2,2-2c0,0,0.231,0,0.667,0C9.199,0,61.719,0,70,0c8.833,0,31,11,31,35
	c0,17.256-10.683,25.97-15.164,28.867l-0.142,0.272c-0.993,0.474-1.391,1.66-0.884,2.637l13.026,25.122L100.079,96.224z M60,27
	H39.625h-2.958H32c-1.1,0-2,0.9-2,2v12c0,1.1,0.9,2,2,2h7.625c0.12,0,0.237-0.015,0.352-0.036L60,43c4.418,0,8-3.582,8-8
	S64.418,27,60,27z"/>
</svg>
